<svg width="44" height="42" viewBox="0 0 44 42" fill="none" xmlns="http://www.w3.org/2000/svg">
<path d="M17.7863 19.3949C18.1545 19.142 18.3322 18.7245 18.3322 18.1505C18.3449 17.8776 18.2856 17.6086 18.1587 17.3638C18.0444 17.1671 17.8752 17.0025 17.6678 16.8861C17.4528 16.7624 17.214 16.6806 16.9653 16.6453C16.6945 16.5971 16.4194 16.573 16.1486 16.577H13.1737V19.7762H16.394C16.9484 19.7802 17.4181 19.6518 17.7863 19.3949ZM18.2856 22.2849C17.8709 21.9839 17.3166 21.8354 16.6268 21.8354H13.1652V25.6085H16.5591C16.8765 25.6085 17.1685 25.5804 17.452 25.5242C17.7202 25.4745 17.976 25.3764 18.2052 25.2352C18.4211 25.1028 18.5946 24.9221 18.7257 24.6893C18.8527 24.4565 18.9162 24.1595 18.9162 23.8022C18.9162 23.0918 18.7046 22.59 18.2856 22.2849ZM21.6668 3.08594C11.1974 3.08594 2.7085 11.138 2.7085 21.0687C2.7085 30.9994 11.1974 39.0515 21.6668 39.0515C32.1362 39.0515 40.6252 30.9994 40.6252 21.0687C40.6252 11.138 32.1362 3.08594 21.6668 3.08594ZM25.3273 14.6021H31.1841V15.9548H25.3273V14.6021ZM21.6668 25.7571C21.3929 26.2503 21.0017 26.6763 20.5243 27.0014C20.0249 27.3305 19.4705 27.5714 18.8823 27.7119C18.2669 27.8683 17.6321 27.9453 16.995 27.9407H9.98714V14.2489H16.8003C17.4901 14.2489 18.1164 14.3091 18.6877 14.4215C19.2547 14.5339 19.7371 14.7266 20.1434 14.9875C20.5454 15.2484 20.8628 15.5976 21.0871 16.0311C21.3071 16.4606 21.4214 16.9985 21.4214 17.6367C21.4214 18.3271 21.2563 18.8971 20.9263 19.3587C20.592 19.8203 20.1095 20.1936 19.4536 20.4867C20.3465 20.7275 21.0024 21.157 21.4341 21.7591C21.8742 22.3692 22.09 23.0998 22.09 23.9588C22.09 24.6572 21.9504 25.2553 21.6668 25.7571ZM33.465 23.6377H25.9155C25.9155 24.4164 26.1991 25.163 26.6265 25.5644C27.0581 25.9618 27.6759 26.1625 28.4842 26.1625C29.0682 26.1625 29.5633 26.022 29.9865 25.745C30.4054 25.468 30.6593 25.175 30.7524 24.87H33.283C32.8768 26.0621 32.259 26.9131 31.4211 27.4269C30.5916 27.9407 29.576 28.1976 28.3953 28.1976C27.5701 28.1976 26.8296 28.0691 26.1652 27.8243C25.5262 27.5874 24.9507 27.2262 24.4767 26.7606C24.0094 26.2824 23.6482 25.72 23.4145 25.1068C23.1564 24.4284 23.0295 23.7139 23.0379 22.9954C23.0379 22.2528 23.1691 21.5624 23.423 20.9202C23.9097 19.6718 24.9211 18.6723 26.2118 18.1545C26.9015 17.8816 27.6421 17.7451 28.3911 17.7531C29.2798 17.7531 30.05 17.9137 30.7186 18.2428C31.3623 18.5571 31.9211 19.0076 32.3521 19.5594C32.7795 20.1093 33.0799 20.7355 33.2703 21.442C33.4523 22.1364 33.5158 22.867 33.465 23.6377ZM28.3022 19.8003C27.8452 19.8003 27.4601 19.8765 27.1639 20.0251C26.8677 20.1736 26.6222 20.3582 26.436 20.571C26.2587 20.7764 26.1276 21.0141 26.0509 21.2694C25.9832 21.4821 25.9367 21.6989 25.9198 21.9197H30.5959C30.5282 21.2252 30.2743 20.7114 29.9357 20.3502C29.5802 19.9929 29.009 19.8003 28.3022 19.8003Z" fill="#110904"/>
</svg>
