<svg width="597" height="339" viewBox="0 0 597 339" fill="none" xmlns="http://www.w3.org/2000/svg">
<mask id="mask0_143_3" style="mask-type:luminance" maskUnits="userSpaceOnUse" x="0" y="0" width="363" height="263">
<path d="M362.098 0H0V262.521H362.098V0Z" fill="white"/>
</mask>
<g mask="url(#mask0_143_3)">
<path d="M68.0282 140.783C70.3363 137.325 70.3746 132.828 68.1258 129.333L4.24464 30.0218C-0.226722 23.0701 4.76418 13.9258 13.0292 13.9258H51.3724C54.9362 13.9258 58.254 15.7425 60.1735 18.7458L77.3955 45.6901C83.7012 55.498 89.8395 65.8056 96.7611 78.1557C100.71 85.2023 110.822 85.4422 114.998 78.5285L150.977 18.9701C152.868 15.8393 156.26 13.9258 159.917 13.9258V56.0545V71.7223L159.807 104.45L142.818 129.506C140.662 132.916 140.662 137.263 142.818 140.673L159.459 168.514V228.748V255.905C155.887 255.905 151.88 254.429 149.963 251.416L136.996 231.038C127.985 216.671 121.329 205.021 113.662 191.103C109.839 184.167 99.9975 183.792 95.6985 190.445L56.2494 251.478C54.3251 254.455 51.0222 256.253 47.4771 256.253H10.4754C2.12998 256.253 -2.8454 246.95 1.78815 240.009L68.0282 140.783Z" fill="white"/>
<path d="M272.924 175.419H236.636C229.714 175.419 224.102 181.031 224.102 187.953V249.917C224.102 256.839 218.49 262.451 211.568 262.451H179.322C172.4 262.451 166.788 256.839 166.788 249.917V13.1822C166.788 6.2598 172.4 0.647949 179.322 0.647949H272.924C326.346 0.647949 362.079 35.6727 362.079 88.0333C362.079 140.394 326.346 175.419 272.924 175.419ZM260.188 51.5932H236.636C229.714 51.5932 224.102 57.2049 224.102 64.1271V111.94C224.102 118.862 229.714 124.474 236.636 124.474H260.188C287.784 124.474 301.581 112.445 301.581 88.0333C301.581 63.622 287.784 51.5932 260.188 51.5932Z" fill="white"/>
</g>
<path d="M280.999 336.027H247.363V188.974H280.999V262.5V336.027ZM378.932 331.617C369.907 336.54 359.858 339 348.783 339C337.707 339 327.658 336.54 318.634 331.617C309.61 326.626 302.534 319.824 297.406 311.21C292.347 302.596 289.818 293.025 289.818 282.497C289.818 271.969 292.347 262.398 297.406 253.783C302.534 245.169 309.61 238.401 318.634 233.479C327.658 228.488 337.707 225.993 348.783 225.993C359.858 225.993 369.907 228.488 378.932 233.479C388.024 238.401 395.1 245.169 400.159 253.783C405.286 262.398 407.85 271.969 407.85 282.497C407.85 293.025 405.286 302.596 400.159 311.21C395.1 319.824 388.024 326.626 378.932 331.617ZM330.734 300.75C335.725 305.536 341.741 307.928 348.783 307.928C355.824 307.928 361.806 305.536 366.729 300.75C371.719 295.897 374.214 289.812 374.214 282.497C374.214 275.182 371.719 269.131 366.729 264.346C361.806 259.492 355.824 257.065 348.783 257.065C341.741 257.065 335.725 259.492 330.734 264.346C325.812 269.131 323.351 275.182 323.351 282.497C323.351 289.812 325.812 295.897 330.734 300.75ZM472.25 228.967H482.094V262.91H467.02C455.808 262.91 450.202 268.516 450.202 279.728V336.027H416.566V228.967H448.151V249.066C449.245 242.64 452.082 237.683 456.663 234.197C461.311 230.71 466.507 228.967 472.25 228.967ZM596.127 283.522V290.701H517.986C519.012 296.854 521.507 301.673 525.472 305.16C529.504 308.647 534.597 310.39 540.75 310.39C546.017 310.39 550.359 309.296 553.777 307.108C557.195 304.852 559.62 301.81 561.054 297.981H595.103C592.436 310.629 586.387 320.644 576.952 328.028C567.585 335.343 555.52 339 540.75 339C529.336 339 519.285 336.505 510.602 331.514C501.92 326.524 495.323 319.79 490.811 311.313C486.299 302.767 484.043 293.162 484.043 282.497C484.043 274.635 485.478 267.217 488.35 260.244C491.221 253.271 495.152 247.289 500.143 242.298C505.133 237.239 511.218 233.274 518.396 230.403C525.577 227.463 533.3 225.993 541.569 225.993C559.006 225.993 572.437 231.086 581.872 241.273C591.375 251.391 596.127 265.474 596.127 283.522ZM540.955 252.45C535.626 252.45 530.906 253.852 526.805 256.655C522.703 259.458 519.934 263.526 518.499 268.858H562.387C561.568 263.662 559.211 259.629 555.315 256.757C551.482 253.886 546.699 252.45 540.955 252.45Z" fill="white"/>
</svg>
