<svg width="90" height="50" viewBox="0 0 90 50" fill="none" xmlns="http://www.w3.org/2000/svg">
<mask id="mask0_94_355" style="mask-type:luminance" maskUnits="userSpaceOnUse" x="0" y="0" width="55" height="39">
<path d="M54.2158 0H0V38.7198H54.2158V0Z" fill="white"/>
</mask>
<g mask="url(#mask0_94_355)">
<path d="M10.1876 20.7651C10.5332 20.2551 10.539 19.5919 10.2023 19.0763L0.637542 4.42872C-0.0319409 3.40341 0.715331 2.05469 1.95283 2.05469H7.69384C8.22743 2.05469 8.72419 2.32264 9.0116 2.76561L11.5902 6.73968C12.5343 8.18626 13.4534 9.70655 14.4897 11.5281C15.081 12.5674 16.5951 12.6028 17.2203 11.5831L22.6073 2.79868C22.8905 2.33692 23.3983 2.05469 23.9459 2.05469V8.26834V10.5792L23.9294 15.4063L21.3858 19.1019C21.0629 19.6048 21.0629 20.2459 21.3858 20.7488L23.8773 24.8552V33.7393V37.7447C23.3425 37.7447 22.7425 37.527 22.4555 37.0826L20.5139 34.077C19.1649 31.958 18.1683 30.2397 17.0202 28.187C16.4478 27.1638 14.9743 27.1086 14.3306 28.0898L8.42405 37.0917C8.13593 37.5309 7.6414 37.7961 7.11061 37.7961H1.57046C0.320921 37.7961 -0.424027 36.4239 0.26974 35.4002L10.1876 20.7651Z" fill="white"/>
<path d="M40.8661 25.874H35.4327C34.3963 25.874 33.556 26.7017 33.556 27.7227V36.8618C33.556 37.8828 32.7158 38.7105 31.6794 38.7105H26.8513C25.8148 38.7105 24.9746 37.8828 24.9746 36.8618V1.94538C24.9746 0.924383 25.8148 0.0966797 26.8513 0.0966797H40.8661C48.8648 0.0966797 54.2149 5.26255 54.2149 12.9853C54.2149 20.7081 48.8648 25.874 40.8661 25.874ZM38.9591 7.61069H35.4327C34.3963 7.61069 33.556 8.43838 33.556 9.45935V16.5113C33.556 17.5323 34.3963 18.36 35.4327 18.36H38.9591C43.0909 18.36 45.1568 16.5858 45.1568 12.9853C45.1568 9.38485 43.0909 7.61069 38.9591 7.61069Z" fill="white"/>
</g>
<path d="M42.0727 49.5612H37.0366V27.8721H42.0727V38.7166V49.5612ZM56.7359 48.9109C55.3847 49.6369 53.8801 49.9998 52.2218 49.9998C50.5636 49.9998 49.0588 49.6369 47.7077 48.9109C46.3566 48.1747 45.2971 47.1715 44.5294 45.901C43.7719 44.6305 43.3932 43.2188 43.3932 41.666C43.3932 40.1132 43.7719 38.7015 44.5294 37.431C45.2971 36.1605 46.3566 35.1622 47.7077 34.4363C49.0588 33.7002 50.5636 33.3322 52.2218 33.3322C53.8801 33.3322 55.3847 33.7002 56.7359 34.4363C58.0973 35.1622 59.1567 36.1605 59.9142 37.431C60.6819 38.7015 61.0658 40.1132 61.0658 41.666C61.0658 43.2188 60.6819 44.6305 59.9142 45.901C59.1567 47.1715 58.0973 48.1747 56.7359 48.9109ZM49.5195 44.3582C50.2667 45.0641 51.1675 45.417 52.2218 45.417C53.2761 45.417 54.1718 45.0641 54.9088 44.3582C55.656 43.6424 56.0296 42.7449 56.0296 41.666C56.0296 40.5871 55.656 39.6947 54.9088 38.9889C54.1718 38.273 53.2761 37.915 52.2218 37.915C51.1675 37.915 50.2667 38.273 49.5195 38.9889C48.7825 39.6947 48.414 40.5871 48.414 41.666C48.414 42.7449 48.7825 43.6424 49.5195 44.3582ZM70.7081 33.7708H72.1821V38.7771H69.9251C68.2464 38.7771 67.407 39.604 67.407 41.2576V49.5612H62.3708V33.7708H67.1V36.7353C67.2637 35.7874 67.6885 35.0564 68.3743 34.5422C69.0704 34.0279 69.8483 33.7708 70.7081 33.7708ZM89.2558 41.8173V42.876H77.556C77.7096 43.7835 78.0832 44.4943 78.6769 45.0086C79.2806 45.5229 80.0432 45.78 80.9645 45.78C81.753 45.78 82.4031 45.6187 82.9149 45.296C83.4267 44.9632 83.7899 44.5146 84.0045 43.9499H89.1025C88.7032 45.8153 87.7976 47.2925 86.3849 48.3815C84.9824 49.4604 83.1759 49.9998 80.9645 49.9998C79.2555 49.9998 77.7505 49.6318 76.4506 48.8957C75.1506 48.1596 74.1628 47.1665 73.4873 45.9161C72.8117 44.6557 72.4739 43.239 72.4739 41.666C72.4739 40.5064 72.6888 39.4124 73.1187 38.3839C73.5487 37.3554 74.1372 36.4731 74.8844 35.737C75.6317 34.9909 76.5427 34.406 77.6175 33.9825C78.6926 33.5489 79.849 33.3322 81.0872 33.3322C83.6979 33.3322 85.7088 34.0834 87.1215 35.5858C88.5444 37.0781 89.2558 39.1553 89.2558 41.8173ZM80.9952 37.2344C80.1973 37.2344 79.4905 37.4411 78.8766 37.8545C78.2624 38.268 77.8478 38.8679 77.6328 39.6544H84.2042C84.0815 38.888 83.7286 38.2931 83.1453 37.8696C82.5714 37.4462 81.8552 37.2344 80.9952 37.2344Z" fill="white"/>
</svg>
