<svg width="63" height="45" viewBox="0 0 63 45" fill="none" xmlns="http://www.w3.org/2000/svg">
<mask id="mask0_100_474" style="mask-type:luminance" maskUnits="userSpaceOnUse" x="0" y="0" width="63" height="45">
<path d="M62.0689 0H0V45H62.0689V0Z" fill="white"/>
</mask>
<g mask="url(#mask0_100_474)">
<path d="M11.6628 24.1323C12.0584 23.5397 12.065 22.7688 11.6795 22.1696L0.729324 5.14629C-0.0371333 3.95468 0.818381 2.38721 2.23513 2.38721H8.80772C9.4186 2.38721 9.98731 2.69862 10.3164 3.21343L13.2684 7.83208C14.3493 9.51329 15.4015 11.2802 16.588 13.3971C17.2649 14.605 18.9983 14.6462 19.7141 13.461L25.8814 3.25187C26.2056 2.71521 26.7869 2.38721 27.4138 2.38721V9.60869V12.2944L27.395 17.9044L24.4829 22.1994C24.1133 22.7839 24.1133 23.529 24.4829 24.1134L27.3354 28.8859V39.2108V43.866C26.7231 43.866 26.0362 43.6129 25.7076 43.0964L23.4848 39.6034C21.9403 37.1407 20.7994 35.1437 19.485 32.758C18.8297 31.5689 17.1428 31.5048 16.4058 32.6451L9.64369 43.107C9.31384 43.6174 8.74768 43.9257 8.14001 43.9257H1.79737C0.366841 43.9257 -0.486013 42.3309 0.308245 41.1412L11.6628 24.1323Z" fill="#110904"/>
<path d="M46.7856 30.0706H40.5653C39.3787 30.0706 38.4167 31.0325 38.4167 32.2191V42.8406C38.4167 44.0271 37.4548 44.9891 36.2682 44.9891H30.7408C29.5542 44.9891 28.5923 44.0271 28.5923 42.8406V2.26085C28.5923 1.07426 29.5542 0.112305 30.7408 0.112305H46.7856C55.9429 0.112305 62.0679 6.11605 62.0679 15.0914C62.0679 24.0668 55.9429 30.0706 46.7856 30.0706ZM44.6024 8.84505H40.5653C39.3787 8.84505 38.4167 9.80699 38.4167 10.9935V19.1893C38.4167 20.3759 39.3787 21.3379 40.5653 21.3379H44.6024C49.3327 21.3379 51.6978 19.2759 51.6978 15.0914C51.6978 10.907 49.3327 8.84505 44.6024 8.84505Z" fill="#110904"/>
</g>
</svg>
