<svg width="44" height="42" viewBox="0 0 44 42" fill="none" xmlns="http://www.w3.org/2000/svg">
<path d="M21.6669 38.5746C31.6387 38.5746 39.7224 30.9069 39.7224 21.4482C39.7224 11.9895 31.6387 4.32178 21.6669 4.32178C11.6951 4.32178 3.61133 11.9895 3.61133 21.4482C3.61133 30.9069 11.6951 38.5746 21.6669 38.5746Z" stroke="#110904" stroke-width="2" stroke-linecap="round" stroke-linejoin="round"/>
<path d="M39.7224 23.6128C38.0238 23.3115 36.2993 23.1602 34.5712 23.1606C24.9079 23.1606 16.3116 27.8567 10.8335 35.1491M34.3058 9.45947C28.6544 15.7397 20.1647 19.7353 10.671 19.7353C8.24077 19.7353 5.8773 19.4733 3.61133 18.9801" stroke="#110904" stroke-width="2" stroke-linecap="round" stroke-linejoin="round"/>
<path d="M26.3939 38.5744C26.8537 36.4557 27.0848 34.298 27.0836 32.1349C27.0836 21.3212 21.3672 11.7664 12.6392 6.03418" stroke="#110904" stroke-width="2" stroke-linecap="round" stroke-linejoin="round"/>
</svg>
