<svg width="70" height="70" viewBox="0 0 70 70" fill="none" xmlns="http://www.w3.org/2000/svg">
<path d="M61.25 46.6714V23.3254C61.2491 22.5612 61.048 21.8107 60.6669 21.1484C60.2857 20.4861 59.7378 19.9352 59.0775 19.5505L38.2963 7.45641C37.295 6.8735 36.1572 6.56641 34.9986 6.56641C33.8401 6.56641 32.7022 6.8735 31.701 7.45641L10.9225 19.5505C10.2622 19.9352 9.71428 20.4861 9.33313 21.1484C8.95198 21.8107 8.75093 22.5612 8.75 23.3254V46.6714C8.75045 47.436 8.95127 48.1871 9.33245 48.8499C9.71362 49.5127 10.2618 50.0641 10.9225 50.449L31.7037 62.5431C32.7052 63.1252 33.843 63.4318 35.0014 63.4318C36.1598 63.4318 37.2975 63.1252 38.299 62.5431L59.0803 50.449C59.7404 50.0637 60.2881 49.5122 60.6687 48.8495C61.0494 48.1867 61.2498 47.4358 61.25 46.6714Z" stroke="#110904" stroke-width="4" stroke-linecap="round" stroke-linejoin="round"/>
<path d="M9.43359 21.0532L35 36.0923M35 36.0923L60.5664 21.0532M35 36.0923V63.436" stroke="#110904" stroke-width="4" stroke-linecap="round" stroke-linejoin="round"/>
<path d="M35 22.9688C36.8122 22.9688 38.2812 21.9894 38.2812 20.7812C38.2812 19.5731 36.8122 18.5938 35 18.5938C33.1878 18.5938 31.7188 19.5731 31.7188 20.7812C31.7188 21.9894 33.1878 22.9688 35 22.9688Z" fill="#110904"/>
<path d="M28.4375 43.75C29.6456 43.75 30.625 42.2809 30.625 40.4688C30.625 38.6566 29.6456 37.1875 28.4375 37.1875C27.2294 37.1875 26.25 38.6566 26.25 40.4688C26.25 42.2809 27.2294 43.75 28.4375 43.75Z" fill="#110904"/>
<path d="M15.3125 48.125C16.5206 48.125 17.5 46.6559 17.5 44.8438C17.5 43.0316 16.5206 41.5625 15.3125 41.5625C14.1044 41.5625 13.125 43.0316 13.125 44.8438C13.125 46.6559 14.1044 48.125 15.3125 48.125Z" fill="#110904"/>
<path d="M41.5625 43.75C42.7706 43.75 43.75 42.2809 43.75 40.4688C43.75 38.6566 42.7706 37.1875 41.5625 37.1875C40.3544 37.1875 39.375 38.6566 39.375 40.4688C39.375 42.2809 40.3544 43.75 41.5625 43.75Z" fill="#110904"/>
<path d="M54.6875 36.0938C55.8956 36.0938 56.875 34.6247 56.875 32.8125C56.875 31.0003 55.8956 29.5312 54.6875 29.5312C53.4794 29.5312 52.5 31.0003 52.5 32.8125C52.5 34.6247 53.4794 36.0938 54.6875 36.0938Z" fill="#110904"/>
<path d="M41.5625 55.7812C42.7706 55.7812 43.75 54.3122 43.75 52.5C43.75 50.6878 42.7706 49.2188 41.5625 49.2188C40.3544 49.2188 39.375 50.6878 39.375 52.5C39.375 54.3122 40.3544 55.7812 41.5625 55.7812Z" fill="#110904"/>
<path d="M54.6875 48.125C55.8956 48.125 56.875 46.6559 56.875 44.8438C56.875 43.0316 55.8956 41.5625 54.6875 41.5625C53.4794 41.5625 52.5 43.0316 52.5 44.8438C52.5 46.6559 53.4794 48.125 54.6875 48.125Z" fill="#110904"/>
</svg>
