<svg width="73" height="71" viewBox="0 0 73 71" fill="none" xmlns="http://www.w3.org/2000/svg">
<g clip-path="url(#clip0_94_363)">
<path d="M24.9551 21.815C24.8998 20.9328 25.2025 20.0651 25.7966 19.4027C26.3907 18.7403 27.2275 18.3375 28.1231 18.2828L49.6166 16.973C50.5122 16.9186 51.393 17.2167 52.0655 17.802C52.7379 18.3872 53.1468 19.2115 53.2024 20.0937L54.532 41.2664C54.5714 42.1396 54.2611 42.993 53.6678 43.643C53.0746 44.293 52.246 44.6874 51.3604 44.7414C50.4749 44.7953 49.6032 44.5045 48.9332 43.9315C48.2632 43.3586 47.8484 42.5493 47.7783 41.678L46.7603 28.7516L25.4762 52.4832C24.882 53.1457 24.045 53.5486 23.1492 53.6031C22.2535 53.6577 21.3724 53.3596 20.6999 52.7742C20.0273 52.1889 19.6183 51.3643 19.5629 50.482C19.5075 49.5996 19.8102 48.7317 20.4044 48.0692L41.6885 24.3376L28.5409 24.9357C27.6453 24.9902 26.7644 24.692 26.092 24.1068C25.4196 23.5216 25.0106 22.6972 24.9551 21.815Z" fill="white"/>
</g>
<defs>
<clipPath id="clip0_94_363">
<rect width="50.3335" height="50.4269" fill="white" transform="matrix(0.667676 -0.744452 0.754332 0.656493 0.560547 37.4707)"/>
</clipPath>
</defs>
</svg>
