<svg width="44" height="42" viewBox="0 0 44 42" fill="none" xmlns="http://www.w3.org/2000/svg">
<path d="M21.6669 3.80469C19.2958 3.80469 16.9479 4.24768 14.7573 5.10836C12.5667 5.96904 10.5763 7.23057 8.89968 8.8209C5.5136 12.0327 3.61133 16.3889 3.61133 20.9311C3.61133 28.501 8.79327 34.9234 15.9613 37.2012C16.8641 37.3382 17.153 36.8073 17.153 36.3449V33.4505C12.1516 34.4781 11.0863 31.1556 11.0863 31.1556C10.2558 29.1689 9.08216 28.638 9.08216 28.638C7.43911 27.5762 9.20855 27.6104 9.20855 27.6104C11.0141 27.7303 11.971 29.3745 11.971 29.3745C13.5419 31.9777 16.196 31.207 17.2252 30.7959C17.3877 29.6827 17.8572 28.9292 18.3627 28.501C14.3544 28.0728 10.1474 26.6 10.1474 20.0748C10.1474 18.1738 10.8335 16.6495 12.0072 15.4335C11.8266 15.0054 11.1947 13.2242 12.1877 10.9122C12.1877 10.9122 13.7044 10.4497 17.153 12.6591C18.5794 12.2823 20.1322 12.0939 21.6669 12.0939C23.2016 12.0939 24.7544 12.2823 26.1808 12.6591C29.6294 10.4497 31.146 10.9122 31.146 10.9122C32.1391 13.2242 31.5072 15.0054 31.3266 15.4335C32.5002 16.6495 33.1863 18.1738 33.1863 20.0748C33.1863 26.6171 28.9613 28.0557 24.9349 28.4839C25.5849 29.0148 26.1808 30.0595 26.1808 31.6523V36.3449C26.1808 36.8073 26.4697 37.3554 27.3905 37.2012C34.5585 34.9063 39.7224 28.501 39.7224 20.9311C39.7224 18.682 39.2554 16.455 38.348 14.3771C37.4407 12.2992 36.1107 10.4112 34.4341 8.8209C32.7575 7.23057 30.767 5.96904 28.5764 5.10836C26.3858 4.24768 24.038 3.80469 21.6669 3.80469Z" fill="#110904"/>
</svg>
