<svg width="44" height="42" viewBox="0 0 44 42" fill="none" xmlns="http://www.w3.org/2000/svg">
<path d="M34.3054 5.27539C35.2631 5.27539 36.1816 5.63627 36.8588 6.27863C37.536 6.921 37.9165 7.79224 37.9165 8.70068V32.6777C37.9165 33.5861 37.536 34.4574 36.8588 35.0997C36.1816 35.7421 35.2631 36.103 34.3054 36.103H9.02762C8.06989 36.103 7.15139 35.7421 6.47417 35.0997C5.79696 34.4574 5.4165 33.5861 5.4165 32.6777V8.70068C5.4165 7.79224 5.79696 6.921 6.47417 6.27863C7.15139 5.63627 8.06989 5.27539 9.02762 5.27539H34.3054ZM33.4026 31.8214V22.7444C33.4026 21.2636 32.7825 19.8435 31.6786 18.7964C30.5748 17.7494 29.0776 17.1611 27.5165 17.1611C25.9818 17.1611 24.1943 18.0517 23.3276 19.3876V17.4865H18.2901V31.8214H23.3276V23.378C23.3276 22.0593 24.4471 20.9803 25.8373 20.9803C26.5077 20.9803 27.1507 21.2329 27.6247 21.6826C28.0988 22.1323 28.3651 22.7421 28.3651 23.378V31.8214H33.4026ZM12.4221 14.7977C13.2265 14.7977 13.9981 14.4946 14.567 13.955C15.1358 13.4154 15.4554 12.6835 15.4554 11.9204C15.4554 10.3277 14.1012 9.02608 12.4221 9.02608C11.6128 9.02608 10.8366 9.33102 10.2644 9.87382C9.69216 10.4166 9.37067 11.1528 9.37067 11.9204C9.37067 13.5132 10.7429 14.7977 12.4221 14.7977ZM14.9318 31.8214V17.4865H9.93039V31.8214H14.9318Z" fill="#110904"/>
</svg>
