<svg width="150" height="150" viewBox="0 0 150 150" fill="none" xmlns="http://www.w3.org/2000/svg">
<path d="M78.7131 145.362L78.6381 145.375L78.1943 145.593L78.0693 145.618L77.9818 145.593L77.5381 145.368C77.4714 145.352 77.4214 145.364 77.3881 145.406L77.3631 145.468L77.2568 148.143L77.2881 148.268L77.3506 148.35L78.0006 148.812L78.0943 148.837L78.1693 148.812L78.8193 148.35L78.8943 148.25L78.9193 148.143L78.8131 145.475C78.7964 145.408 78.7631 145.371 78.7131 145.362ZM80.3631 144.656L80.2756 144.668L79.1256 145.25L79.0631 145.312L79.0443 145.381L79.1568 148.068L79.1881 148.143L79.2381 148.193L80.4943 148.768C80.5735 148.789 80.6339 148.773 80.6756 148.718L80.7006 148.631L80.4881 144.793C80.4673 144.714 80.4256 144.668 80.3631 144.656ZM75.8943 144.668C75.8668 144.652 75.8339 144.646 75.8024 144.653C75.771 144.66 75.7435 144.679 75.7256 144.706L75.6881 144.793L75.4756 148.631C75.4798 148.706 75.5152 148.756 75.5818 148.781L75.6756 148.768L76.9318 148.187L76.9943 148.137L77.0131 148.068L77.1256 145.381L77.1068 145.306L77.0443 145.243L75.8943 144.668Z" fill="#110904"/>
<path d="M56.9192 34.05C60.6567 23.1125 75.7692 22.7812 80.2004 33.0562L80.5754 34.0562L85.6192 48.8062C86.7751 52.189 88.643 55.2844 91.0969 57.8839C93.5508 60.4833 96.5336 62.5263 99.8442 63.875L101.2 64.3812L115.95 69.4187C126.888 73.1562 127.219 88.2687 116.95 92.7L115.95 93.075L101.2 98.1187C97.8166 99.2739 94.7199 101.141 92.1193 103.595C89.5187 106.049 87.4748 109.033 86.1254 112.344L85.6192 113.694L80.5817 128.45C76.8442 139.387 61.7317 139.719 57.3067 129.45L56.9192 128.45L51.8817 113.7C50.7265 110.316 48.859 107.219 46.4051 104.619C43.9511 102.018 40.9679 99.9743 37.6567 98.625L36.3067 98.1187L21.5567 93.0812C10.6129 89.3437 10.2817 74.2312 20.5567 69.8062L21.5567 69.4187L36.3067 64.3812C39.6894 63.2253 42.7849 61.3575 45.3843 58.9036C47.9838 56.4497 50.0267 53.4668 51.3754 50.1562L51.8817 48.8062L56.9192 34.05ZM118.75 12.5C119.92 12.5 121.066 12.828 122.058 13.4467C123.05 14.0654 123.848 14.95 124.363 16L124.663 16.7313L126.85 23.1438L133.269 25.3312C134.441 25.7293 135.468 26.4663 136.221 27.4488C136.973 28.4313 137.417 29.6151 137.496 30.8501C137.575 32.0851 137.285 33.3158 136.664 34.3862C136.043 35.4565 135.118 36.3184 134.007 36.8625L133.269 37.1625L126.857 39.35L124.669 45.7687C124.27 46.9402 123.533 47.9669 122.55 48.7187C121.567 49.4705 120.383 49.9137 119.148 49.992C117.913 50.0703 116.683 49.7803 115.613 49.1586C114.543 48.537 113.682 47.6117 113.138 46.5L112.838 45.7687L110.65 39.3562L104.232 37.1687C103.06 36.7707 102.033 36.0337 101.28 35.0512C100.528 34.0687 100.084 32.8849 100.005 31.6499C99.926 30.4149 100.215 29.1842 100.837 28.1138C101.458 27.0435 102.383 26.1816 103.494 25.6375L104.232 25.3375L110.644 23.15L112.832 16.7313C113.253 15.4964 114.05 14.4244 115.112 13.6656C116.173 12.9068 117.446 12.4992 118.75 12.5Z" fill="#110904"/>
</svg>
