<svg width="54" height="54" viewBox="0 0 54 54" fill="none" xmlns="http://www.w3.org/2000/svg">
<path d="M20.4907 12.258C21.8362 8.3205 27.2767 8.20125 28.872 11.9002L29.007 12.2602L30.8228 17.5702C31.2389 18.788 31.9113 19.9024 32.7947 20.8382C33.6781 21.774 34.7519 22.5095 35.9438 22.995L36.432 23.1772L41.742 24.9907C45.6795 26.3362 45.7988 31.7767 42.102 33.372L41.742 33.507L36.432 35.3227C35.2138 35.7386 34.099 36.4109 33.1628 37.2943C32.2266 38.1777 31.4908 39.2517 31.005 40.4437L30.8228 40.9297L29.0092 46.242C27.6637 50.1795 22.2232 50.2987 20.6302 46.602L20.4907 46.242L18.6772 40.932C18.2614 39.7138 17.5891 38.599 16.7057 37.6628C15.8222 36.7266 14.7483 35.9908 13.5562 35.505L13.0702 35.3227L7.76024 33.5092C3.82049 32.1637 3.70124 26.7232 7.40024 25.1302L7.76024 24.9907L13.0702 23.1772C14.288 22.7611 15.4024 22.0887 16.3382 21.2053C17.274 20.3219 18.0095 19.2481 18.495 18.0562L18.6772 17.5702L20.4907 12.258ZM42.75 4.5C43.1709 4.5 43.5834 4.61808 43.9406 4.84081C44.2978 5.06355 44.5853 5.38201 44.7705 5.76L44.8785 6.02325L45.666 8.33175L47.9768 9.11925C48.3986 9.26256 48.7684 9.52788 49.0393 9.88158C49.3102 10.2353 49.4699 10.6614 49.4984 11.106C49.5268 11.5507 49.4226 11.9937 49.199 12.379C48.9754 12.7643 48.6424 13.0746 48.2423 13.2705L47.9768 13.3785L45.6683 14.166L44.8808 16.4767C44.7372 16.8985 44.4717 17.2681 44.1178 17.5387C43.764 17.8094 43.3378 17.9689 42.8932 17.9971C42.4486 18.0253 42.0056 17.9209 41.6205 17.6971C41.2353 17.4733 40.9252 17.1402 40.7295 16.74L40.6215 16.4767L39.834 14.1682L37.5233 13.3807C37.1014 13.2374 36.7316 12.9721 36.4607 12.6184C36.1898 12.2647 36.0301 11.8386 36.0016 11.394C35.9732 10.9493 36.0774 10.5063 36.301 10.121C36.5246 9.73565 36.8576 9.42539 37.2578 9.2295L37.5233 9.1215L39.8318 8.334L40.6193 6.02325C40.771 5.57871 41.058 5.19279 41.4401 4.91962C41.8223 4.64645 42.2803 4.49972 42.75 4.5Z" fill="white"/>
</svg>
