<svg width="44" height="42" viewBox="0 0 44 42" fill="none" xmlns="http://www.w3.org/2000/svg">
<path d="M21.6668 13.487C20.1938 13.487 18.7538 13.9013 17.529 14.6776C16.3042 15.4539 15.3496 16.5572 14.7859 17.8481C14.2221 19.139 14.0746 20.5595 14.362 21.9299C14.6494 23.3003 15.3587 24.5591 16.4004 25.5471C17.442 26.5351 18.7691 27.208 20.2138 27.4805C21.6586 27.7531 23.1561 27.6132 24.517 27.0785C25.878 26.5438 27.0412 25.6383 27.8595 24.4766C28.6779 23.3148 29.1147 21.9489 29.1147 20.5516C29.1125 18.6786 28.3271 16.8829 26.9308 15.5585C25.5346 14.2341 23.6414 13.4891 21.6668 13.487ZM21.6668 26.3318C20.4616 26.3318 19.2834 25.9928 18.2813 25.3577C17.2792 24.7225 16.4982 23.8198 16.0369 22.7636C15.5757 21.7074 15.455 20.5452 15.6902 19.424C15.9253 18.3027 16.5057 17.2728 17.3579 16.4644C18.2101 15.6561 19.2959 15.1056 20.478 14.8825C21.6601 14.6595 22.8853 14.774 23.9988 15.2115C25.1123 15.6489 26.064 16.3898 26.7336 17.3403C27.4032 18.2909 27.7606 19.4084 27.7606 20.5516C27.7606 22.0846 27.1186 23.5548 25.9758 24.6388C24.833 25.7228 23.283 26.3318 21.6668 26.3318ZM29.7918 4.49561H13.5418C11.2082 4.49816 8.97091 5.37861 7.32079 6.94383C5.67066 8.50904 4.74243 10.6312 4.73975 12.8447V28.2585C4.74243 30.4721 5.67066 32.5942 7.32079 34.1595C8.97091 35.7247 11.2082 36.6051 13.5418 36.6077H29.7918C32.1255 36.6051 34.3627 35.7247 36.0129 34.1595C37.663 32.5942 38.5912 30.4721 38.5939 28.2585V12.8447C38.5912 10.6312 37.663 8.50904 36.0129 6.94383C34.3627 5.37861 32.1255 4.49816 29.7918 4.49561ZM37.2397 28.2585C37.2375 30.1315 36.4521 31.9272 35.0558 33.2517C33.6596 34.5761 31.7664 35.3211 29.7918 35.3232H13.5418C11.5672 35.3211 9.6741 34.5761 8.27783 33.2517C6.88156 31.9272 6.09615 30.1315 6.09391 28.2585V12.8447C6.09615 10.9717 6.88156 9.17604 8.27783 7.85162C9.6741 6.5272 11.5672 5.78221 13.5418 5.78009H29.7918C31.7664 5.78221 33.6596 6.5272 35.0558 7.85162C36.4521 9.17604 37.2375 10.9717 37.2397 12.8447V28.2585ZM31.8231 12.2025C31.8231 12.4565 31.7437 12.7049 31.5949 12.9161C31.4461 13.1274 31.2346 13.292 30.9871 13.3892C30.7397 13.4864 30.4674 13.5119 30.2047 13.4623C29.942 13.4127 29.7008 13.2904 29.5114 13.1108C29.322 12.9311 29.193 12.7023 29.1408 12.4531C29.0885 12.2039 29.1153 11.9457 29.2178 11.711C29.3203 11.4762 29.4939 11.2756 29.7166 11.1345C29.9393 10.9934 30.2011 10.918 30.4689 10.918C30.8281 10.918 31.1725 11.0533 31.4265 11.2942C31.6804 11.5351 31.8231 11.8618 31.8231 12.2025Z" fill="#110904" stroke="#110904"/>
</svg>
