<svg width="70" height="70" viewBox="0 0 70 70" fill="none" xmlns="http://www.w3.org/2000/svg">
<path d="M38.2813 49.2188C38.2813 49.8677 38.0888 50.5021 37.7283 51.0417C37.3677 51.5813 36.8553 52.0019 36.2557 52.2502C35.6561 52.4986 34.9964 52.5636 34.3599 52.437C33.7234 52.3103 33.1387 51.9978 32.6798 51.5389C32.2209 51.0801 31.9084 50.4954 31.7818 49.8589C31.6552 49.2224 31.7202 48.5626 31.9685 47.9631C32.2169 47.3635 32.6374 46.851 33.177 46.4905C33.7166 46.1299 34.351 45.9375 35 45.9375C35.8703 45.9375 36.7049 46.2832 37.3202 46.8986C37.9356 47.5139 38.2813 48.3485 38.2813 49.2188ZM35 19.6875C28.968 19.6875 24.0625 24.1035 24.0625 29.5312V30.625C24.0625 31.2052 24.293 31.7616 24.7032 32.1718C25.1135 32.582 25.6699 32.8125 26.25 32.8125C26.8302 32.8125 27.3866 32.582 27.7968 32.1718C28.207 31.7616 28.4375 31.2052 28.4375 30.625V29.5312C28.4375 26.5234 31.3824 24.0625 35 24.0625C38.6176 24.0625 41.5625 26.5234 41.5625 29.5312C41.5625 32.5391 38.6176 35 35 35C34.4199 35 33.8635 35.2305 33.4532 35.6407C33.043 36.0509 32.8125 36.6073 32.8125 37.1875V39.375C32.8125 39.9552 33.043 40.5116 33.4532 40.9218C33.8635 41.332 34.4199 41.5625 35 41.5625C35.5802 41.5625 36.1366 41.332 36.5468 40.9218C36.957 40.5116 37.1875 39.9552 37.1875 39.375V39.1781C42.175 38.2621 45.9375 34.2836 45.9375 29.5312C45.9375 24.1035 41.032 19.6875 35 19.6875ZM63.4375 35C63.4375 40.6244 61.7697 46.1225 58.6449 50.799C55.5202 55.4755 51.0788 59.1205 45.8826 61.2728C40.6863 63.4252 34.9685 63.9883 29.4521 62.8911C23.9358 61.7938 18.8687 59.0854 14.8917 55.1083C10.9146 51.1313 8.2062 46.0642 7.10893 40.5479C6.01166 35.0315 6.57482 29.3137 8.72719 24.1174C10.8796 18.9212 14.5245 14.4798 19.201 11.3551C23.8775 8.23033 29.3756 6.5625 35 6.5625C42.5397 6.57046 49.7682 9.5691 55.0996 14.9004C60.4309 20.2318 63.4296 27.4604 63.4375 35ZM59.0625 35C59.0625 30.2409 57.6513 25.5886 55.0073 21.6316C52.3632 17.6745 48.6052 14.5904 44.2083 12.7691C39.8115 10.9479 34.9733 10.4714 30.3057 11.3999C25.638 12.3283 21.3505 14.62 17.9853 17.9852C14.6201 21.3504 12.3283 25.638 11.3999 30.3056C10.4714 34.9733 10.9479 39.8115 12.7692 44.2083C14.5904 48.6052 17.6745 52.3632 21.6316 55.0072C25.5887 57.6513 30.2409 59.0625 35 59.0625C41.3796 59.0553 47.4958 56.5178 52.0068 52.0068C56.5178 47.4957 59.0553 41.3796 59.0625 35Z" fill="#110904"/>
</svg>
