<svg width="60" height="60" viewBox="0 0 60 60" fill="none" xmlns="http://www.w3.org/2000/svg">
<path d="M30.0001 2.1123L54.1501 16.0573V43.9423L30.0001 57.8873L5.8501 43.9423V16.0573L30.0001 2.1123ZM30.0001 7.8873L10.8501 18.9423V41.0573L30.0001 52.1123L49.1501 41.0573V18.9423L30.0001 7.8873ZM30.0001 22.4998C28.011 22.4998 26.1033 23.29 24.6968 24.6965C23.2903 26.103 22.5001 28.0107 22.5001 29.9998C22.5001 31.9889 23.2903 33.8966 24.6968 35.3031C26.1033 36.7096 28.011 37.4998 30.0001 37.4998C31.9892 37.4998 33.8969 36.7096 35.3034 35.3031C36.7099 33.8966 37.5001 31.9889 37.5001 29.9998C37.5001 28.0107 36.7099 26.103 35.3034 24.6965C33.8969 23.29 31.9892 22.4998 30.0001 22.4998ZM17.5001 29.9998C17.5001 26.6846 18.8171 23.5052 21.1613 21.161C23.5055 18.8168 26.6849 17.4998 30.0001 17.4998C33.3153 17.4998 36.4947 18.8168 38.8389 21.161C41.1831 23.5052 42.5001 26.6846 42.5001 29.9998C42.5001 33.315 41.1831 36.4944 38.8389 38.8386C36.4947 41.1828 33.3153 42.4998 30.0001 42.4998C26.6849 42.4998 23.5055 41.1828 21.1613 38.8386C18.8171 36.4944 17.5001 33.315 17.5001 29.9998Z" fill="#110904"/>
</svg>
