<svg width="110" height="110" viewBox="0 0 110 110" fill="none" xmlns="http://www.w3.org/2000/svg">
<path d="M0 48.6667H12.1667V60.8333H0V48.6667ZM48.6667 12.1667H60.8333V36.5H48.6667V12.1667ZM36.5 48.6667H60.8333V73H48.6667V60.8333H36.5V48.6667ZM73 48.6667H85.1667V60.8333H97.3333V48.6667H109.5V60.8333H97.3333V73H109.5V97.3333H97.3333V109.5H85.1667V97.3333H60.8333V109.5H48.6667V85.1667H73V73H85.1667V60.8333H73V48.6667ZM97.3333 97.3333V73H85.1667V97.3333H97.3333ZM73 0H109.5V36.5H73V0ZM85.1667 12.1667V24.3333H97.3333V12.1667H85.1667ZM0 0H36.5V36.5H0V0ZM12.1667 12.1667V24.3333H24.3333V12.1667H12.1667ZM0 73H36.5V109.5H0V73ZM12.1667 85.1667V97.3333H24.3333V85.1667H12.1667Z" fill="#110904"/>
</svg>
