<svg width="110" height="111" viewBox="0 0 110 111" fill="none" xmlns="http://www.w3.org/2000/svg">
<path d="M0 49.1867H12.1667V61.3534H0V49.1867ZM48.6667 12.6867H60.8333V37.02H48.6667V12.6867ZM36.5 49.1867H60.8333V73.52H48.6667V61.3534H36.5V49.1867ZM73 49.1867H85.1667V61.3534H97.3333V49.1867H109.5V61.3534H97.3333V73.52H109.5V97.8534H97.3333V110.02H85.1667V97.8534H60.8333V110.02H48.6667V85.6867H73V73.52H85.1667V61.3534H73V49.1867ZM97.3333 97.8534V73.52H85.1667V97.8534H97.3333ZM73 0.52002H109.5V37.02H73V0.52002ZM85.1667 12.6867V24.8534H97.3333V12.6867H85.1667ZM0 0.52002H36.5V37.02H0V0.52002ZM12.1667 12.6867V24.8534H24.3333V12.6867H12.1667ZM0 73.52H36.5V110.02H0V73.52ZM12.1667 85.6867V97.8534H24.3333V85.6867H12.1667Z" fill="white"/>
</svg>
