<svg width="26" height="28" viewBox="0 0 26 28" fill="none" xmlns="http://www.w3.org/2000/svg">
<path d="M0.435196 1.37619L13.5662 14.0073L0.532852 26.7548C0.319622 26.4824 0.154098 26.1771 0.0430674 25.8514C-0.0143558 25.4827 -0.0143558 25.1075 0.0430674 24.7388V3.0459C0.0040048 2.46378 0.140724 1.88167 0.433693 1.37619M19.2228 8.49859L14.9364 12.6633L1.96164 0.147126C2.38232 0.00417699 2.83304 -0.0356127 3.27324 0.0321776C3.96435 0.217864 4.62391 0.503762 5.22938 0.876608L16.9722 7.25037C17.7354 7.65269 18.4791 8.07564 19.2228 8.49859ZM14.9379 15.3705L19.2033 19.4791L16.1113 21.168L6.6777 26.3112C5.89645 26.7342 5.11219 27.138 4.34897 27.5992C4.02239 27.7987 3.65618 27.9275 3.27481 27.977C2.89344 28.0266 2.50568 27.9958 2.13742 27.8866L14.9379 15.3705ZM25.9957 14.0073C26.0066 14.5226 25.8739 15.0311 25.6117 15.4778C25.3496 15.9245 24.968 16.2925 24.5083 16.5421L20.9836 18.4608L16.3457 14.0073L21.0032 9.47713C22.1976 10.13 23.3725 10.7828 24.5458 11.3974C25.0138 11.6539 25.3982 12.0352 25.6545 12.497C25.9108 12.9589 26.03 13.4825 25.9957 14.0073Z" fill="#110904"/>
</svg>
