<svg width="22" height="21" viewBox="0 0 22 21" fill="none" xmlns="http://www.w3.org/2000/svg">
<g clip-path="url(#clip0_243_40)">
<path d="M11.6368 3.2099C11.895 2.94747 12.2481 2.80005 12.6187 2.80005C12.9892 2.80005 13.3468 2.94747 13.6128 3.2099L19.9951 9.5092C20.261 9.77171 20.4135 10.1277 20.419 10.4989C20.4246 10.8701 20.2827 11.2261 20.0247 11.4886L13.8303 17.7879C13.5706 18.0429 13.2197 18.184 12.8533 18.1808C12.4868 18.1776 12.1341 18.0304 11.8712 17.7708C11.6082 17.5113 11.456 17.1602 11.4473 16.7932C11.4387 16.4261 11.5742 16.0725 11.8249 15.8085L15.5493 11.8987H2.27392C1.9033 11.8987 1.54567 11.7513 1.27968 11.4887C1.0137 11.2262 0.861159 10.8702 0.855619 10.4989C0.850078 10.1276 0.991991 9.77158 1.25014 9.50905C1.50828 9.24653 1.86152 9.09905 2.23214 9.09905H15.5075L11.6664 5.18928C11.4005 4.92677 11.248 4.57078 11.2425 4.19959C11.2369 3.82841 11.3788 3.47241 11.6368 3.2099Z" fill="#110904"/>
</g>
<defs>
<clipPath id="clip0_243_40">
<rect width="20.9611" height="21" fill="white" transform="matrix(1 0 0.0149222 0.999889 0 0)"/>
</clipPath>
</defs>
</svg>
