<svg width="616" height="447" viewBox="0 0 616 447" fill="none" xmlns="http://www.w3.org/2000/svg">
<mask id="mask0_291_17" style="mask-type:luminance" maskUnits="userSpaceOnUse" x="0" y="0" width="616" height="447">
<path d="M615.384 0H0V446.154H615.384V0Z" fill="white"/>
</mask>
<g mask="url(#mask0_291_17)">
<path d="M115.618 239.262C119.541 233.386 119.606 225.743 115.784 219.802L7.2183 51.0237C-0.380765 39.2095 8.10125 23.6687 22.1477 23.6687H87.3117C93.3684 23.6687 99.0069 26.7563 102.269 31.8604L131.538 77.6521C142.254 94.3205 152.686 111.838 164.45 132.827C171.161 144.803 188.346 145.211 195.443 133.461L256.589 32.2415C259.803 26.9207 265.567 23.6687 271.783 23.6687V95.2663V121.894L271.596 177.515L242.724 220.097C239.059 225.892 239.059 233.28 242.724 239.074L271.005 286.391V388.758V434.912C264.934 434.912 258.124 432.402 254.866 427.281L232.828 392.65C217.515 368.233 206.203 348.434 193.172 324.781C186.675 312.992 169.95 312.356 162.644 323.661L95.6 427.387C92.3297 432.447 86.7165 435.503 80.6917 435.503H17.8075C3.62444 435.503 -4.8312 419.692 3.0435 407.896L115.618 239.262Z" fill="black"/>
<path d="M463.843 298.129H402.171C390.407 298.129 380.869 307.666 380.869 319.431V424.738C380.869 436.502 371.332 446.039 359.568 446.039H304.766C293.002 446.039 283.465 436.502 283.465 424.738V22.4086C283.465 10.644 293.002 1.10669 304.766 1.10669H463.843C554.633 1.10669 615.36 60.631 615.36 149.618C615.36 238.604 554.633 298.129 463.843 298.129ZM442.197 87.6878H402.171C390.407 87.6878 380.869 97.225 380.869 108.989V190.246C380.869 202.01 390.407 211.548 402.171 211.548H442.197C489.096 211.548 512.545 191.105 512.545 149.618C512.545 108.131 489.096 87.6878 442.197 87.6878Z" fill="black"/>
</g>
</svg>
