<svg width="16" height="13" viewBox="0 0 16 13" fill="none" xmlns="http://www.w3.org/2000/svg">
<path d="M2.16911 2.73356H2.52523L2.64165 2.397C2.81493 1.89604 3.13567 1.46396 3.5579 1.15919C3.97999 0.85453 4.48312 0.691681 4.99796 0.691681C5.5128 0.691681 6.01593 0.85453 6.43802 1.15919C6.86025 1.46397 7.18099 1.89604 7.35427 2.397L7.47068 2.73356H7.8268H14.9939C15.1231 2.73356 15.2491 2.78585 15.3436 2.88224C15.4385 2.97897 15.4935 3.11224 15.4935 3.25325C15.4935 3.39426 15.4385 3.52753 15.3436 3.62426C15.2491 3.72066 15.1231 3.77294 14.9939 3.77294H7.8268H7.47068L7.35427 4.1095C7.18099 4.61047 6.86025 5.04254 6.43802 5.34731C6.01593 5.65197 5.5128 5.81482 4.99796 5.81482C4.48312 5.81482 3.97999 5.65197 3.5579 5.34731C3.13567 5.04254 2.81493 4.61047 2.64165 4.1095L2.52523 3.77294H2.16911H0.999592C0.87034 3.77294 0.744322 3.72066 0.649829 3.62426L0.298968 3.96821L0.649828 3.62426C0.555004 3.52753 0.5 3.39426 0.5 3.25325C0.5 3.11225 0.555004 2.97897 0.649829 2.88224C0.744322 2.78585 0.87034 2.73356 0.999592 2.73356H2.16911ZM8.16666 8.85171H8.52279L8.6392 8.51515C8.81248 8.01418 9.13322 7.58211 9.55545 7.27734C9.97754 6.97267 10.4807 6.80982 10.9955 6.80982C11.5103 6.80982 12.0135 6.97267 12.4356 7.27734C12.8578 7.58211 13.1785 8.01418 13.3518 8.51515L13.4682 8.85171H13.8244H14.9939C15.1231 8.85171 15.2491 8.90399 15.3436 9.00038C15.4385 9.09711 15.4935 9.23039 15.4935 9.3714C15.4935 9.5124 15.4385 9.64568 15.3436 9.74241C15.2491 9.8388 15.1231 9.89109 14.9939 9.89109H13.8244H13.4682L13.3518 10.2276C13.1785 10.7286 12.8578 11.1607 12.4356 11.4655C12.0135 11.7701 11.5103 11.933 10.9955 11.933C10.4807 11.933 9.97754 11.7701 9.55545 11.4655C9.13322 11.1607 8.81248 10.7286 8.6392 10.2276L8.52278 9.89109H8.16666H0.999592C0.870341 9.89109 0.744323 9.8388 0.649828 9.74241C0.555004 9.64568 0.5 9.5124 0.5 9.3714C0.5 9.23039 0.555004 9.09711 0.649829 9.00038C0.744321 8.90399 0.870339 8.85171 0.999592 8.85171H8.16666ZM9.93164 8.30035L10.2887 8.65036L9.93163 8.30035C9.65154 8.58608 9.49592 8.97153 9.49592 9.3714C9.49592 9.77127 9.65154 10.1567 9.93163 10.4424C10.2121 10.7285 10.5945 10.8911 10.9955 10.8911C11.3965 10.8911 11.779 10.7285 12.0594 10.4424C12.3395 10.1567 12.4951 9.77127 12.4951 9.3714C12.4951 8.97153 12.3395 8.58608 12.0594 8.30035C11.779 8.01428 11.3965 7.85171 10.9955 7.85171C10.5945 7.85171 10.2121 8.01428 9.93164 8.30035ZM4.99796 1.73356C4.59699 1.73356 4.21451 1.89614 3.93409 2.1822C3.65399 2.46793 3.49837 2.85338 3.49837 3.25325C3.49837 3.65312 3.65399 4.03857 3.93409 4.3243C4.21451 4.61036 4.59699 4.77294 4.99796 4.77294C5.39892 4.77294 5.78141 4.61036 6.06183 4.3243C6.34193 4.03857 6.49755 3.65312 6.49755 3.25325C6.49755 2.85338 6.34193 2.46793 6.06183 2.1822C5.78141 1.89614 5.39892 1.73356 4.99796 1.73356Z" stroke="black"/>
</svg>
